<svg width="95" height="95" viewBox="0 0 95 95" fill="none" xmlns="http://www.w3.org/2000/svg">
<circle cx="47.5" cy="47.5" r="47.5" fill="#52D3D8"/>
<path d="M83.7473 60.2473C82.6891 59.0719 81.114 58.4683 79.5308 58.6312L58.1496 60.8496L48.8753 45.7427L67.2048 15.8876C67.5435 15.3356 67.3712 14.6137 66.8193 14.2762C66.265 13.934 65.5454 14.1098 65.2079 14.6618L47.5006 43.5033L29.7921 14.6606C29.4535 14.1098 28.7339 13.9364 28.1796 14.2751C27.6288 14.6137 27.4554 15.3356 27.7941 15.8864L46.1248 45.7427L36.8505 60.8496L15.4693 58.6312C13.8907 58.4672 12.311 59.0707 11.2528 60.2473C10.1887 61.4297 9.76682 63.0575 10.1254 64.5985C10.1278 64.6114 10.1313 64.6243 10.1348 64.6384C10.9317 68.0052 13.9247 70.3525 17.4287 70.3525H33.1109C33.1227 70.3525 33.1344 70.3478 33.1461 70.3478C33.2328 70.3455 33.3207 70.3361 33.4051 70.3138C33.4473 70.3033 33.4848 70.2822 33.5246 70.267C33.5774 70.247 33.6301 70.2318 33.6793 70.2037C33.718 70.1826 33.7508 70.1521 33.786 70.1263C33.8305 70.0947 33.8785 70.0666 33.9195 70.0279C33.9629 69.9869 33.9969 69.9353 34.0332 69.8873C34.0578 69.8556 34.0871 69.8298 34.1082 69.7947L47.5006 47.9822L60.8918 69.7935C60.9141 69.8298 60.9446 69.8568 60.9692 69.8896C61.0055 69.9365 61.0383 69.9869 61.0805 70.0267C61.1227 70.0677 61.1731 70.097 61.22 70.131C61.254 70.1545 61.2844 70.1838 61.3196 70.2037C61.3712 70.2318 61.4274 70.2494 61.4825 70.2693C61.52 70.2834 61.5563 70.3033 61.595 70.3138C61.6794 70.3361 61.7673 70.3455 61.8551 70.3478C61.8669 70.3478 61.8774 70.3525 61.8891 70.3525H77.5714C81.0742 70.3525 84.0684 68.0052 84.8653 64.6384C84.8688 64.6255 84.8723 64.6126 84.8746 64.5985C85.2332 63.0575 84.8114 61.4297 83.7473 60.2473ZM12.4094 64.0747C12.4071 64.063 12.4036 64.0512 12.4012 64.0395C12.229 63.2508 12.4505 62.4223 12.9954 61.8153C13.5532 61.1942 14.3794 60.8707 15.2278 60.9621L35.4629 63.0622L32.4523 68.0087H17.4275C15.0099 68.0087 12.9462 66.3915 12.4094 64.0747ZM82.5988 64.0383C82.5965 64.0501 82.593 64.0618 82.5906 64.0735C82.0539 66.3903 79.9902 68.0075 77.5726 68.0075H62.5477L59.5371 63.061L79.7722 60.961C80.6136 60.8731 81.4469 61.193 82.0047 61.8129C82.5496 62.4211 82.7711 63.2508 82.5988 64.0383Z" fill="#0A1D56"/>
<path d="M47.5006 71.5244C42.8235 71.5244 39.2973 73.5401 39.2973 76.212C39.2973 78.8839 42.8235 80.8995 47.5006 80.8995C52.1776 80.8995 55.7038 78.8839 55.7038 76.212C55.7038 73.5401 52.1764 71.5244 47.5006 71.5244ZM47.5006 78.5558C43.9239 78.5558 41.6411 77.1671 41.6411 76.212C41.6411 75.2569 43.9239 73.8682 47.5006 73.8682C51.0772 73.8682 53.36 75.2569 53.36 76.212C53.36 77.1682 51.0772 78.5558 47.5006 78.5558Z" fill="#0A1D56"/>
</svg>
