<svg width="453" height="651" viewBox="0 0 453 651" fill="none" xmlns="http://www.w3.org/2000/svg">
<g clip-path="url(#clip0_9_50)">
<path d="M172.564 650.427C170.857 650.138 168.064 649.498 166.358 649.003L163.255 648.104L163.042 641.492L162.83 634.879L166.145 633.811C171.976 631.933 179.378 631.763 189.527 633.274C194.548 634.022 199.156 634.791 199.767 634.983C201.279 635.459 201.382 648.05 199.882 649.069C197.367 650.78 179.818 651.652 172.564 650.427ZM192.443 618.401C186.361 615.668 184.835 614.562 182.935 611.511C181.806 609.698 167.521 567.243 167.521 565.701C167.521 565.534 164.579 565.296 160.984 565.173C153.213 564.907 150.842 563.8 148.605 559.399C146.85 555.945 147.299 553.032 150.066 549.921C154.024 545.471 154.051 544.876 150.416 542.222C148.621 540.91 147.459 539.837 147.834 539.837C148.208 539.837 149.365 536.801 150.403 533.091C152.159 526.818 153.132 525.023 155.074 524.478C155.498 524.359 143.794 488.113 128.906 443.444L101.97 362.625L94.2121 362.314C86.9579 362.024 86.1527 361.852 81.8035 359.673C75.0367 356.281 70.7207 352.567 67.7786 347.602C64.3981 341.896 63.6799 338.135 65.4916 335.622C66.6673 333.99 66.7307 333.262 65.972 330.102C64.416 323.62 67.6712 310.975 70.8957 310.975C71.5597 310.975 72.103 310.689 72.103 310.339C72.103 309.987 74.1564 309.704 76.7117 309.704C79.2466 309.704 81.4946 309.473 81.7075 309.191C82.3931 308.281 50.5966 226.495 47.9002 222.232C43.7739 215.708 43.8343 215.749 40.9197 217.515L38.4372 219.019L32.8478 216.598C28.2123 214.591 26.5538 213.405 23.1297 209.652C20.8589 207.163 17.0725 203.383 14.7156 201.253C12.0385 198.833 8.46506 194.339 5.19386 189.277C0.196029 181.545 -0.941493 178.638 0.704005 177.805C1.17487 177.566 1.14286 176.873 0.617338 175.928C-0.00207893 174.814 0.104624 172.903 1.03325 168.481C2.33135 162.299 5.07115 145.407 5.76157 139.328C6.6962 131.1 8.60158 130.11 23.5053 130.11H34.253L36.1419 127.065C38.2469 123.672 40.1382 122.799 45.3898 122.799C48.063 122.799 48.8302 122.567 48.8302 121.756C48.8302 121.181 50.2266 118.9 51.9333 116.685C53.7659 114.307 55.0363 111.881 55.0363 110.758C55.0363 109.561 55.8816 108.069 57.3207 106.725C58.5771 105.553 60.4135 103.326 61.4017 101.776C62.6752 99.7797 63.7606 98.8955 65.1294 98.7397C66.1915 98.6188 67.4996 98.2243 68.0363 97.8631C69.4988 96.8787 83.9987 91.0129 84.9696 91.0129C85.433 91.0129 88.1418 89.0354 90.9892 86.6183L96.1663 82.2237L104.498 81.494C115.775 80.5063 119.039 79.8413 122.809 77.7631C124.574 76.7901 131.255 73.6071 137.654 70.6899C144.055 67.7726 152.178 63.988 155.707 62.2797C163.589 58.4635 172.274 54.7837 173.408 54.7795C173.872 54.7775 175.061 51.558 176.05 47.6244C179.382 34.3689 181.778 28.5905 186.58 22.2289C190.78 16.6645 199.314 9.06881 201.417 9.02374C201.926 9.01283 202.814 8.45147 203.392 7.77628C203.969 7.1011 208.09 5.07522 212.551 3.27434L220.661 1.52588e-05L230.358 0.38505C235.691 0.596818 245.487 0.73757 252.126 0.697831C266.61 0.611133 269.848 1.18388 272.799 4.3547C275.628 7.39411 281.701 15.8185 285.161 21.5042C287.688 25.6562 288 26.7778 288.694 34.2188C289.113 38.7073 289.295 44.8539 289.099 47.8779C288.795 52.5769 288.387 53.8859 286.295 56.8826C283.521 60.8562 280.782 66.9618 280.782 69.1723C280.782 70.1683 282.641 72.1692 286.449 75.2711C289.566 77.8102 293.543 81.4611 295.288 83.3842C297.033 85.3073 300.094 88.168 302.091 89.7415C304.088 91.3149 306.963 93.9785 308.48 95.6606C309.997 97.3427 313.609 100.355 316.507 102.354C321.824 106.021 331.713 116.75 337.405 125.024C338.848 127.122 341.971 131.123 344.345 133.914C346.718 136.706 349.394 140.235 350.291 141.758L351.922 144.526L362.703 147.529C368.633 149.181 375.48 151.281 377.918 152.196C383.553 154.31 392.49 160.207 395.853 164.031C399.281 167.928 405.679 180.627 405.679 183.534C405.679 184.791 406.082 186.437 406.575 187.192C407.067 187.946 407.712 190.585 408.007 193.056C408.397 196.322 409.098 198.235 410.576 200.066C414.784 205.28 421.326 218.45 423.979 227.049C425.434 231.763 426.624 236.245 426.624 237.008C426.624 237.789 427.556 238.952 428.753 239.667C430.777 240.875 430.88 241.189 430.831 246.016C430.793 249.718 430.412 251.553 429.428 252.785C427.501 255.195 421.93 257.903 415.718 259.449L410.368 260.781L410.818 263.475C411.428 267.122 409.853 277.223 407.932 281.982C407.07 284.117 405.213 287.437 403.804 289.36C402.396 291.283 398.852 296.719 395.927 301.439C385.494 318.282 381.23 322.482 371.654 325.353C362.26 328.169 354.081 331.114 345.558 334.749C333.699 339.807 329.474 342.008 330.079 342.81C330.344 343.161 331.905 344.144 333.548 344.994C335.19 345.844 338.492 348.55 340.885 351.008C343.278 353.465 345.714 355.476 346.299 355.476C346.884 355.476 348.426 356.661 349.725 358.109C351.025 359.557 353.76 361.537 355.805 362.509C357.849 363.481 362.663 366.438 366.503 369.08C370.343 371.722 373.987 373.891 374.601 373.898C375.215 373.906 377.834 375.717 380.42 377.923C384.428 381.341 386.151 382.275 392.103 384.25C398.94 386.519 406.917 387.881 413.585 387.916C419.965 387.95 424.32 390.663 429.363 397.743C430.302 399.062 435.478 399.884 443.183 399.939C448.357 399.976 453 401.308 453 402.755C453 404.063 447.311 411.574 443.222 415.665C430.225 428.669 383.102 467.985 377.887 470.177C376.468 470.773 373.342 471.523 370.939 471.844C367.075 472.359 366.383 472.281 364.936 471.167C364.036 470.474 362.337 469.907 361.161 469.907C356.687 469.907 348.617 464.673 346.459 460.371C343.273 454.019 344.109 450.846 350.784 443.969C353.548 441.122 354.895 439.138 354.953 437.829C355.001 436.766 356.485 433.245 358.25 430.005C360.016 426.765 361.461 423.87 361.461 423.572C361.461 423.273 359.975 422.892 358.159 422.724C353.728 422.314 346.196 419.216 344.285 417.016C343.433 416.036 342.217 415.235 341.582 415.235C340.948 415.235 335.648 413.567 329.805 411.529C323.962 409.492 317.96 407.43 316.467 406.949C314.973 406.467 311.184 404.63 308.046 402.866C301.702 399.3 299.735 398.286 287.243 392.139C279.34 388.25 278.009 387.812 272.116 387.158C261.647 385.995 262.144 385.901 260.805 389.31C259.699 392.123 259.724 392.5 261.203 395.349C262.071 397.02 263.555 400.676 264.502 403.474C265.448 406.271 266.525 408.716 266.894 408.908C267.533 409.239 268.029 411.771 269.884 424.168C270.996 431.602 270.932 433.096 269.104 442.311C267.285 451.482 267.229 451.329 273.526 454.353C275.623 455.36 276.903 456.431 276.903 457.177C276.903 459.044 272.447 472.886 270.206 477.977C268.248 482.427 268.228 482.631 269.445 485.56C271.192 489.76 271.013 492.374 268.691 496.615C266.713 500.228 266.698 500.373 267.575 507.184C269.289 520.491 269.773 525.861 269.387 527.281C268.229 531.538 267.41 532.725 264.855 533.853C261.78 535.21 261.814 535.072 263.312 540.155C264.772 545.111 264.818 552.736 263.401 554.968C261.706 557.637 258.997 559.305 255.099 560.079C250.383 561.016 205.917 564.43 191.376 564.972C178.25 565.462 179.209 564.725 181.393 572.635C184.17 582.694 189.217 588.006 199.658 591.859C202.188 592.793 207.774 594.987 212.071 596.735C221.488 600.566 221.45 600.479 217.916 610.388C214.627 619.612 213.93 620.134 204.538 620.412C197.607 620.617 197.236 620.555 192.443 618.401ZM216.274 550.539C223.017 549.36 224.798 548.788 226.973 547.108C229.566 545.103 230.161 543.478 228.897 541.844C228.355 541.142 227.766 541.189 225.612 542.107C223.207 543.131 212.099 546.993 205.533 549.087C204.04 549.564 201.561 549.966 200.025 549.981C196.586 550.016 192.345 551.172 192.345 552.075C192.345 553.111 206.911 552.176 216.274 550.539ZM170.199 520.815C171.5 519.794 176.521 517.216 181.358 515.087C191.994 510.404 195.706 508.352 201.335 504.039L205.64 500.74L203.083 497.593C200.721 494.685 200.511 494.007 200.329 488.692C200.091 481.764 198.318 471.296 196.717 467.364C194.521 461.974 191.797 432.369 192.644 423.099C193.288 416.051 190.177 405.997 185.531 400.11C177.933 390.482 177.2 375.885 183.674 363.097C189.909 350.781 193.615 343.678 194.486 342.377C194.979 341.641 197.647 339.83 200.415 338.352C205.121 335.839 205.398 335.561 204.697 334.049C204.101 332.765 204.23 332.257 205.322 331.578C206.078 331.108 206.894 330.714 207.136 330.703C207.377 330.692 208.394 329.467 209.394 327.981C210.395 326.495 215.622 321.693 221.009 317.311L230.805 309.342L232.202 302.799C232.971 299.2 233.465 296.145 233.301 296.011C233.137 295.876 230.924 296.898 228.383 298.283C225.26 299.984 222.903 300.8 221.109 300.801C218.325 300.803 210.934 302.906 204.37 305.564C196.834 308.615 192.377 309.501 187.343 308.951C182.349 308.405 181.519 308.767 181.497 311.504C181.489 312.493 179.288 314.858 174.891 318.604C171.177 321.768 168.297 324.767 168.297 325.471C168.297 327.007 163.318 330.782 158.829 332.649C156.996 333.412 154.101 334.815 152.394 335.769C150.687 336.722 147.871 338.092 146.135 338.814C144.399 339.536 139.23 343.143 134.649 346.83C130.067 350.517 125.514 353.9 124.531 354.346C123.549 354.793 121.277 356.07 119.483 357.185C117.688 358.3 115.844 359.315 115.383 359.441C114.463 359.692 115.989 364.376 116.991 364.376C117.293 364.376 117.556 364.877 117.576 365.489C117.596 366.101 122.536 381.62 128.554 399.977C138.615 430.666 149.874 466.219 154.728 482.622C158.119 494.084 165.441 518.442 166.146 520.607C166.516 521.743 167.047 522.673 167.327 522.673C167.606 522.673 168.899 521.837 170.199 520.815ZM411.055 428.267C416.669 422.094 416.982 417.039 411.402 422.668C406.994 427.113 399.473 436.69 399.473 437.856C399.473 438.717 407.885 431.752 411.055 428.267ZM102.396 304.141C105.334 302.48 107.75 300.858 107.763 300.536C107.777 300.214 108.298 299.488 108.921 298.924C109.544 298.359 111.613 295.333 113.518 292.199C115.424 289.064 118.217 285.524 119.727 284.331L122.471 282.163L123.275 283.896C123.717 284.849 124.079 285.912 124.079 286.259C124.079 287.41 128.5 284.77 129.942 282.758C132.224 279.575 138.564 274.366 148.055 267.876C152.922 264.548 158.162 260.797 159.699 259.54C162.174 257.517 171.633 253.899 178.914 252.191C179.846 251.972 180.719 251.396 180.853 250.911C180.987 250.426 183.518 248.365 186.477 246.332C190.338 243.679 192.514 241.577 194.181 238.891C195.64 236.54 197.594 234.531 199.437 233.488C201.558 232.287 202.38 231.36 202.401 230.144C202.417 229.218 203.676 226.476 205.199 224.05L207.968 219.639L203.025 210.793C200.306 205.928 194.283 196.369 189.64 189.551C176.971 170.946 177.502 172.114 172.58 152.043C169.192 138.23 167.638 132.812 166.885 132.195C165.854 131.35 151.445 134.018 147.953 135.701C146.129 136.58 142.018 139.213 138.818 141.551C135.618 143.888 131.668 146.541 130.039 147.445C127.274 148.981 126.89 149.033 124.221 148.242C122.649 147.775 118.814 147.031 115.697 146.587C110.912 145.905 109.614 145.922 107.358 146.695C104.689 147.608 104.685 147.617 104.668 151.893C104.648 156.819 102.636 161.219 100.102 161.878C98.8256 162.21 98.4787 162.823 98.4787 164.744C98.4787 166.467 97.5468 168.472 95.3211 171.536C91.4295 176.893 88.8925 179.944 86.9473 181.604C86.1282 182.304 84.5344 185.593 83.4055 188.915C80.5039 197.453 80.1294 198.07 76.5071 200.275C70.3475 204.024 67.6281 206.415 64.482 210.848L61.3234 215.298L78.3496 260.036C87.7139 284.642 95.3757 305.311 95.3757 305.967C95.3757 307.756 96.532 307.455 102.396 304.141Z" fill="#D0EAFE"/>
<path d="M172.564 650.427C170.857 650.138 168.064 649.498 166.358 649.003L163.255 648.104L163.042 641.492L162.83 634.879L166.145 633.811C171.976 631.933 179.378 631.763 189.527 633.274C194.548 634.022 199.156 634.791 199.767 634.983C201.279 635.459 201.382 648.049 199.882 649.069C197.367 650.78 179.818 651.652 172.564 650.427ZM192.443 618.401C186.361 615.668 184.835 614.562 182.935 611.51C181.806 609.698 167.521 567.243 167.521 565.701C167.521 565.534 164.579 565.296 160.984 565.173C153.213 564.907 150.842 563.8 148.605 559.399C146.85 555.945 147.299 553.032 150.066 549.921C154.024 545.471 154.051 544.876 150.416 542.221C148.621 540.91 147.459 539.837 147.834 539.837C148.208 539.837 149.365 536.801 150.403 533.091C152.159 526.818 153.132 525.023 155.074 524.478C155.498 524.359 143.794 488.113 128.906 443.444L101.97 362.625L94.2121 362.314C86.9579 362.024 86.1527 361.852 81.8035 359.673C75.0367 356.281 70.7207 352.567 67.7786 347.602C64.3981 341.896 63.6799 338.135 65.4916 335.622C66.6673 333.99 66.7307 333.262 65.972 330.102C64.416 323.62 67.6712 310.975 70.8957 310.975C71.5597 310.975 72.103 310.689 72.103 310.339C72.103 309.987 74.1564 309.704 76.7117 309.704C79.2466 309.704 81.4946 309.473 81.7075 309.191C82.3931 308.281 50.5966 226.495 47.9002 222.232C43.7739 215.708 43.8343 215.749 40.9197 217.515L38.4372 219.019L32.8478 216.598C28.2123 214.591 26.5538 213.405 23.1297 209.652C20.8589 207.163 17.0725 203.383 14.7156 201.253C12.0385 198.833 8.46506 194.339 5.19386 189.277C0.196029 181.545 -0.941493 178.638 0.704005 177.805C1.17438 177.567 1.13989 176.868 0.610785 175.916C-0.0160966 174.789 0.0793411 172.982 0.987315 168.787C1.65625 165.697 3.11513 157.017 4.22928 149.5C5.3953 141.632 6.77189 134.969 7.47299 133.799C9.27179 130.798 12.0567 130.177 23.8931 130.141L34.2529 130.11L36.1418 127.065C38.2469 123.672 40.1382 122.799 45.3898 122.799C48.063 122.799 48.8302 122.567 48.8302 121.756C48.8302 121.181 50.2266 118.9 51.9333 116.685C53.7659 114.307 55.0363 111.881 55.0363 110.758C55.0363 109.561 55.8816 108.069 57.3207 106.725C58.5771 105.553 60.4135 103.326 61.4017 101.776C62.6752 99.7797 63.7606 98.8955 65.1294 98.7397C66.1915 98.6188 67.4996 98.2243 68.0363 97.8631C69.4988 96.8787 83.9987 91.0129 84.9696 91.0129C85.433 91.0129 88.1418 89.0353 90.9892 86.6183L96.1663 82.2237L104.498 81.4939C115.775 80.5063 119.039 79.8413 122.809 77.7631C124.574 76.79 131.255 73.6071 137.654 70.6899C144.055 67.7726 152.178 63.988 155.707 62.2797C163.569 58.4732 172.273 54.7836 173.4 54.7795C173.861 54.7774 175.018 51.701 175.971 47.9423C178.629 37.4684 182.151 28.0298 184.45 25.215C185.592 23.8164 186.756 22.2429 187.036 21.7185C188.826 18.3672 199.475 9.00388 201.497 9.00388C201.962 9.00388 202.814 8.45146 203.392 7.77627C203.969 7.10108 208.09 5.07521 212.551 3.27433L220.661 0L230.358 0.385036C235.691 0.596805 245.487 0.737556 252.126 0.697818C266.61 0.61112 269.848 1.18386 272.799 4.35468C275.628 7.3941 281.701 15.8185 285.161 21.5042C287.688 25.6561 288 26.7778 288.694 34.2187C289.113 38.7072 289.295 44.8539 289.099 47.8779C288.795 52.5769 288.387 53.8859 286.295 56.8826C283.521 60.8562 280.782 66.9618 280.782 69.1723C280.782 70.1682 282.641 72.1692 286.449 75.2711C289.566 77.8102 293.543 81.4611 295.288 83.3842C297.033 85.3072 300.094 88.168 302.091 89.7415C304.088 91.3149 306.963 93.9785 308.48 95.6606C309.997 97.3427 313.609 100.355 316.507 102.354C321.824 106.021 331.713 116.75 337.405 125.024C338.848 127.122 341.971 131.123 344.345 133.914C346.718 136.706 349.394 140.235 350.291 141.758L351.922 144.526L362.703 147.529C368.633 149.181 375.48 151.281 377.918 152.196C383.553 154.31 392.49 160.207 395.853 164.031C399.281 167.928 405.679 180.627 405.679 183.534C405.679 184.791 406.082 186.437 406.575 187.192C407.067 187.946 407.712 190.585 408.007 193.056C408.397 196.322 409.098 198.235 410.576 200.066C414.784 205.279 421.326 218.45 423.979 227.049C425.434 231.763 426.624 236.245 426.624 237.008C426.624 237.789 427.556 238.952 428.753 239.667C430.777 240.875 430.88 241.189 430.831 246.016C430.793 249.718 430.412 251.553 429.428 252.785C427.501 255.195 421.93 257.903 415.718 259.449L410.368 260.781L410.818 263.475C411.428 267.122 409.853 277.223 407.932 281.982C407.07 284.117 405.213 287.437 403.804 289.36C402.396 291.283 398.852 296.719 395.927 301.439C385.494 318.282 381.23 322.482 371.654 325.353C362.26 328.169 354.081 331.113 345.558 334.749C333.699 339.807 329.474 342.008 330.079 342.81C330.344 343.161 331.905 344.144 333.548 344.994C335.19 345.844 338.492 348.55 340.885 351.008C343.278 353.465 345.714 355.476 346.299 355.476C346.884 355.476 348.426 356.661 349.725 358.109C351.025 359.557 353.76 361.537 355.805 362.509C357.849 363.48 362.663 366.438 366.503 369.08C370.343 371.722 373.987 373.891 374.601 373.898C375.215 373.906 377.834 375.717 380.42 377.922C384.428 381.341 386.151 382.275 392.103 384.25C398.94 386.519 406.917 387.88 413.585 387.916C419.965 387.95 424.32 390.663 429.363 397.743C430.302 399.062 435.478 399.884 443.183 399.939C448.357 399.976 453 401.308 453 402.755C453 404.063 447.311 411.574 443.222 415.665C430.225 428.669 383.102 467.985 377.887 470.177C376.468 470.773 373.342 471.523 370.939 471.844C367.075 472.359 366.383 472.281 364.936 471.167C364.036 470.474 362.337 469.907 361.161 469.907C356.687 469.907 348.617 464.673 346.459 460.371C343.273 454.019 344.109 450.846 350.784 443.969C353.548 441.122 354.895 439.138 354.953 437.829C355.001 436.766 356.485 433.245 358.25 430.005C360.016 426.765 361.461 423.87 361.461 423.572C361.461 423.273 359.975 422.892 358.159 422.724C353.728 422.314 346.196 419.216 344.285 417.016C343.433 416.036 342.217 415.235 341.582 415.235C340.948 415.235 335.648 413.567 329.805 411.529C323.962 409.492 317.96 407.43 316.467 406.949C314.973 406.467 311.184 404.63 308.046 402.866C301.702 399.3 299.735 398.286 287.243 392.139C279.34 388.25 278.009 387.812 272.116 387.158C261.647 385.995 262.144 385.901 260.805 389.31C259.699 392.123 259.724 392.5 261.203 395.349C262.071 397.02 263.555 400.676 264.502 403.474C265.448 406.271 266.525 408.716 266.894 408.908C267.533 409.239 268.029 411.771 269.884 424.168C270.996 431.602 270.932 433.096 269.104 442.311C267.285 451.482 267.229 451.329 273.526 454.353C275.623 455.36 276.903 456.431 276.903 457.177C276.903 459.044 272.447 472.886 270.206 477.977C268.248 482.427 268.228 482.631 269.445 485.56C271.192 489.76 271.013 492.374 268.691 496.615C266.713 500.228 266.698 500.373 267.575 507.184C269.289 520.491 269.773 525.861 269.387 527.281C268.229 531.538 267.41 532.725 264.855 533.853C261.78 535.21 261.814 535.072 263.312 540.155C264.772 545.111 264.818 552.736 263.401 554.968C261.706 557.637 258.997 559.305 255.099 560.079C250.383 561.016 205.917 564.43 191.376 564.972C178.25 565.462 179.209 564.725 181.393 572.635C184.17 582.694 189.217 588.006 199.658 591.859C202.188 592.793 207.774 594.987 212.071 596.735C221.488 600.566 221.45 600.479 217.916 610.388C214.627 619.612 213.93 620.134 204.538 620.412C197.607 620.617 197.236 620.555 192.443 618.401ZM216.274 550.539C223.017 549.36 224.798 548.788 226.973 547.108C229.566 545.103 230.161 543.478 228.897 541.844C228.355 541.142 227.766 541.189 225.612 542.107C223.207 543.13 212.099 546.993 205.533 549.087C204.04 549.564 201.561 549.966 200.025 549.981C196.586 550.016 192.345 551.172 192.345 552.075C192.345 553.111 206.911 552.176 216.274 550.539ZM170.199 520.815C171.5 519.794 176.521 517.216 181.358 515.087C191.994 510.404 195.706 508.352 201.335 504.039L205.64 500.74L203.083 497.593C200.721 494.685 200.511 494.007 200.329 488.692C200.091 481.764 198.318 471.296 196.717 467.364C194.521 461.974 191.797 432.369 192.644 423.099C193.288 416.051 190.177 405.997 185.531 400.11C177.933 390.482 177.2 375.885 183.674 363.097C189.909 350.781 193.615 343.678 194.486 342.377C194.979 341.641 197.647 339.83 200.415 338.352C205.121 335.839 205.398 335.561 204.697 334.049C204.101 332.765 204.23 332.257 205.322 331.578C206.078 331.108 206.894 330.714 207.136 330.703C207.377 330.692 208.394 329.467 209.394 327.981C210.395 326.495 215.622 321.693 221.009 317.311L230.805 309.342L232.202 302.799C232.971 299.2 233.465 296.145 233.301 296.011C233.137 295.876 230.924 296.898 228.383 298.283C225.26 299.984 222.903 300.8 221.109 300.801C218.325 300.803 210.934 302.906 204.37 305.564C196.834 308.615 192.377 309.501 187.343 308.951C182.349 308.405 181.519 308.767 181.497 311.504C181.489 312.493 179.288 314.858 174.891 318.604C171.177 321.768 168.297 324.767 168.297 325.471C168.297 327.007 163.318 330.782 158.829 332.649C156.996 333.412 154.101 334.815 152.394 335.769C150.687 336.722 147.871 338.092 146.135 338.814C144.399 339.536 139.23 343.143 134.649 346.83C130.067 350.517 125.514 353.9 124.531 354.346C123.549 354.793 121.277 356.07 119.483 357.185C117.688 358.3 115.844 359.315 115.383 359.441C114.463 359.692 115.989 364.376 116.991 364.376C117.293 364.376 117.556 364.877 117.576 365.489C117.596 366.101 122.536 381.62 128.554 399.977C138.615 430.666 149.874 466.219 154.728 482.622C158.119 494.083 165.441 518.442 166.146 520.607C166.516 521.743 167.047 522.673 167.327 522.673C167.606 522.673 168.899 521.837 170.199 520.815ZM411.055 428.267C416.669 422.094 416.982 417.039 411.402 422.668C406.994 427.113 399.473 436.69 399.473 437.856C399.473 438.717 407.885 431.752 411.055 428.267ZM102.396 304.141C105.334 302.48 107.75 300.858 107.763 300.536C107.777 300.214 108.298 299.488 108.921 298.924C109.544 298.359 111.613 295.333 113.518 292.199C115.424 289.064 118.217 285.524 119.727 284.331L122.471 282.163L123.275 283.896C123.717 284.849 124.079 285.912 124.079 286.259C124.079 287.41 128.5 284.77 129.942 282.758C132.224 279.575 138.564 274.366 148.055 267.876C152.922 264.548 158.162 260.797 159.699 259.54C162.174 257.517 171.633 253.899 178.914 252.191C179.846 251.972 180.719 251.396 180.853 250.911C180.987 250.426 183.518 248.365 186.477 246.332C190.338 243.679 192.514 241.577 194.181 238.891C195.64 236.54 197.594 234.531 199.437 233.488C201.558 232.287 202.38 231.36 202.401 230.144C202.417 229.218 203.676 226.476 205.199 224.05L207.968 219.639L203.025 210.793C200.306 205.928 194.283 196.369 189.64 189.551C176.971 170.946 177.502 172.114 172.58 152.043C169.192 138.23 167.638 132.812 166.885 132.195C165.854 131.35 151.445 134.018 147.953 135.701C146.129 136.58 142.018 139.213 138.818 141.551C135.618 143.888 131.668 146.541 130.039 147.445C127.274 148.981 126.89 149.033 124.221 148.242C122.649 147.775 118.814 147.031 115.697 146.587C110.912 145.905 109.614 145.922 107.358 146.695C104.689 147.608 104.685 147.617 104.668 151.893C104.648 156.819 102.636 161.219 100.102 161.878C98.8256 162.21 98.4787 162.823 98.4787 164.744C98.4787 166.467 97.5468 168.472 95.3211 171.536C91.4295 176.893 88.8925 179.944 86.9473 181.604C86.1282 182.304 84.5344 185.593 83.4055 188.915C80.5039 197.453 80.1294 198.07 76.5071 200.275C70.3475 204.024 67.6281 206.415 64.482 210.848L61.3234 215.298L78.3496 260.036C87.7139 284.642 95.3757 305.311 95.3757 305.967C95.3757 307.756 96.532 307.455 102.396 304.141Z" fill="#AEDCFE"/>
<path d="M172.564 650.427C170.857 650.138 168.064 649.498 166.358 649.003L163.255 648.104L163.042 641.492L162.83 634.879L166.145 633.811C171.976 631.933 179.378 631.763 189.527 633.274C194.548 634.022 199.156 634.791 199.767 634.983C201.279 635.459 201.382 648.05 199.882 649.069C197.367 650.78 179.818 651.652 172.564 650.427ZM192.443 618.401C186.361 615.668 184.835 614.562 182.935 611.511C181.806 609.698 167.521 567.243 167.521 565.701C167.521 565.534 164.579 565.296 160.984 565.173C153.213 564.907 150.842 563.8 148.605 559.399C146.85 555.945 147.299 553.032 150.066 549.921C154.024 545.471 154.051 544.876 150.416 542.222C148.621 540.91 147.459 539.837 147.834 539.837C148.208 539.837 149.365 536.801 150.403 533.091C152.159 526.818 153.132 525.023 155.074 524.478C155.498 524.359 143.794 488.113 128.906 443.444L101.97 362.625L94.2121 362.314C86.9579 362.024 86.1527 361.852 81.8035 359.673C75.0367 356.281 70.7207 352.567 67.7786 347.602C64.3981 341.896 63.6799 338.135 65.4916 335.622C66.6673 333.99 66.7307 333.262 65.972 330.102C64.416 323.62 67.6712 310.975 70.8957 310.975C71.5597 310.975 72.103 310.689 72.103 310.339C72.103 309.987 74.1564 309.704 76.7117 309.704C79.2466 309.704 81.4946 309.473 81.7075 309.191C82.3931 308.281 50.5966 226.495 47.9002 222.232C43.7739 215.708 43.8343 215.749 40.9197 217.515L38.4372 219.019L32.8478 216.598C28.2123 214.591 26.5538 213.405 23.1297 209.652C20.8589 207.163 17.0725 203.383 14.7156 201.253C12.0385 198.833 8.46506 194.339 5.19386 189.277C0.196029 181.545 -0.941493 178.638 0.704005 177.805C1.17438 177.567 1.13989 176.868 0.610785 175.916C-0.0162965 174.788 0.0799034 172.983 0.990686 168.787C1.66148 165.697 3.1663 156.874 4.33473 149.182C5.60135 140.843 6.91585 134.605 7.59019 133.733C9.90954 130.733 12.7135 130.11 23.8931 130.11H34.2529L36.1418 127.065C38.2469 123.672 40.1382 122.799 45.3898 122.799C48.063 122.799 48.8302 122.567 48.8302 121.756C48.8302 121.181 50.2266 118.9 51.9333 116.685C53.7659 114.307 55.0363 111.881 55.0363 110.758C55.0363 109.561 55.8816 108.069 57.3207 106.725C58.5771 105.553 60.4135 103.326 61.4017 101.776C62.6752 99.7797 63.7606 98.8955 65.1294 98.7397C66.1915 98.6188 67.4996 98.2243 68.0363 97.8631C69.4988 96.8787 83.9987 91.0129 84.9696 91.0129C85.433 91.0129 88.1418 89.0354 90.9892 86.6183L96.1663 82.2237L104.498 81.494C115.775 80.5063 119.039 79.8413 122.809 77.7631C124.574 76.7901 131.255 73.6071 137.654 70.6899C144.055 67.7726 152.178 63.988 155.707 62.2797C163.569 58.4732 172.273 54.7837 173.4 54.7795C173.861 54.7775 175.021 51.701 175.979 47.9423C180.033 32.0418 182.397 27.1911 191.096 16.9262C193.153 14.5 200.368 9.0039 201.497 9.0039C201.962 9.0039 202.814 8.45147 203.392 7.77628C203.969 7.1011 208.09 5.07522 212.551 3.27434L220.661 1.52588e-05L230.358 0.38505C235.691 0.596818 245.487 0.73757 252.126 0.697831C266.61 0.611133 269.848 1.18388 272.799 4.3547C275.628 7.39411 281.701 15.8185 285.161 21.5042C287.688 25.6562 288 26.7778 288.694 34.2188C289.113 38.7073 289.295 44.8539 289.099 47.8779C288.795 52.5769 288.387 53.8859 286.295 56.8826C283.521 60.8562 280.782 66.9618 280.782 69.1723C280.782 70.1683 282.641 72.1692 286.449 75.2711C289.566 77.8102 293.543 81.4611 295.288 83.3842C297.033 85.3073 300.094 88.168 302.091 89.7415C304.088 91.3149 306.963 93.9785 308.48 95.6606C309.997 97.3427 313.609 100.355 316.507 102.354C321.824 106.021 331.713 116.75 337.405 125.024C338.848 127.122 341.971 131.123 344.345 133.914C346.718 136.706 349.394 140.235 350.291 141.758L351.922 144.526L362.703 147.529C368.633 149.181 375.48 151.281 377.918 152.196C383.553 154.31 392.49 160.207 395.853 164.031C399.281 167.928 405.679 180.627 405.679 183.534C405.679 184.791 406.082 186.437 406.575 187.192C407.067 187.946 407.712 190.585 408.007 193.056C408.397 196.322 409.098 198.235 410.576 200.066C414.784 205.28 421.326 218.45 423.979 227.049C425.434 231.763 426.624 236.245 426.624 237.008C426.624 237.789 427.556 238.952 428.753 239.667C430.777 240.875 430.88 241.189 430.831 246.016C430.793 249.718 430.412 251.553 429.428 252.785C427.501 255.195 421.93 257.903 415.718 259.449L410.368 260.781L410.818 263.475C411.428 267.122 409.853 277.223 407.932 281.982C407.07 284.117 405.213 287.437 403.804 289.36C402.396 291.283 398.852 296.719 395.927 301.439C385.494 318.282 381.23 322.482 371.654 325.353C362.26 328.169 354.081 331.114 345.558 334.749C333.699 339.807 329.474 342.008 330.079 342.81C330.344 343.161 331.905 344.144 333.548 344.994C335.19 345.844 338.492 348.55 340.885 351.008C343.278 353.465 345.714 355.476 346.299 355.476C346.884 355.476 348.426 356.661 349.725 358.109C351.025 359.557 353.76 361.537 355.805 362.509C357.849 363.481 362.663 366.438 366.503 369.08C370.343 371.722 373.987 373.891 374.601 373.898C375.215 373.906 377.834 375.717 380.42 377.923C384.428 381.341 386.151 382.275 392.103 384.25C398.94 386.519 406.917 387.881 413.585 387.916C419.965 387.95 424.32 390.663 429.363 397.743C430.302 399.062 435.478 399.884 443.183 399.939C448.357 399.976 453 401.308 453 402.755C453 404.063 447.311 411.574 443.222 415.665C430.225 428.669 383.102 467.985 377.887 470.177C376.468 470.773 373.342 471.523 370.939 471.844C367.075 472.359 366.383 472.281 364.936 471.167C364.036 470.474 362.337 469.907 361.161 469.907C356.687 469.907 348.617 464.673 346.459 460.371C343.273 454.019 344.109 450.846 350.784 443.969C353.548 441.122 354.895 439.138 354.953 437.829C355.001 436.766 356.485 433.245 358.25 430.005C360.016 426.765 361.461 423.87 361.461 423.572C361.461 423.273 359.975 422.892 358.159 422.724C353.728 422.314 346.196 419.216 344.285 417.016C343.433 416.036 342.217 415.235 341.582 415.235C340.948 415.235 335.648 413.567 329.805 411.529C323.962 409.492 317.96 407.43 316.467 406.949C314.973 406.467 311.184 404.63 308.046 402.866C301.702 399.3 299.735 398.286 287.243 392.139C279.34 388.25 278.009 387.812 272.116 387.158C261.647 385.995 262.144 385.901 260.805 389.31C259.699 392.123 259.724 392.5 261.203 395.349C262.071 397.02 263.555 400.676 264.502 403.474C265.448 406.271 266.525 408.716 266.894 408.908C267.533 409.239 268.029 411.771 269.884 424.168C270.996 431.602 270.932 433.096 269.104 442.311C267.285 451.482 267.229 451.329 273.526 454.353C275.623 455.36 276.903 456.431 276.903 457.177C276.903 459.044 272.447 472.886 270.206 477.977C268.248 482.427 268.228 482.631 269.445 485.56C271.192 489.76 271.013 492.374 268.691 496.615C266.713 500.228 266.698 500.373 267.575 507.184C269.289 520.491 269.773 525.861 269.387 527.281C268.229 531.538 267.41 532.725 264.855 533.853C261.78 535.21 261.814 535.072 263.312 540.155C264.772 545.111 264.818 552.736 263.401 554.968C261.706 557.637 258.997 559.305 255.099 560.079C250.383 561.016 205.917 564.43 191.376 564.972C178.25 565.462 179.209 564.725 181.393 572.635C184.17 582.694 189.217 588.006 199.658 591.859C202.188 592.793 207.774 594.987 212.071 596.735C221.488 600.566 221.45 600.479 217.916 610.388C214.627 619.612 213.93 620.134 204.538 620.412C197.607 620.617 197.236 620.555 192.443 618.401ZM216.274 550.539C223.017 549.36 224.798 548.788 226.973 547.108C229.566 545.103 230.161 543.478 228.897 541.844C228.355 541.142 227.766 541.189 225.612 542.107C223.207 543.131 212.099 546.993 205.533 549.087C204.04 549.564 201.561 549.966 200.025 549.981C196.586 550.016 192.345 551.172 192.345 552.075C192.345 553.111 206.911 552.176 216.274 550.539ZM170.199 520.815C171.5 519.794 176.521 517.216 181.358 515.087C191.994 510.404 195.706 508.352 201.335 504.039L205.64 500.74L203.083 497.593C200.721 494.685 200.511 494.007 200.329 488.692C200.091 481.764 198.318 471.296 196.717 467.364C194.521 461.974 191.797 432.369 192.644 423.099C193.288 416.051 190.177 405.997 185.531 400.11C177.933 390.482 177.2 375.885 183.674 363.097C189.909 350.781 193.615 343.678 194.486 342.377C194.979 341.641 197.647 339.83 200.415 338.352C205.121 335.839 205.398 335.561 204.697 334.049C204.101 332.765 204.23 332.257 205.322 331.578C206.078 331.108 206.894 330.714 207.136 330.703C207.377 330.692 208.394 329.467 209.394 327.981C210.395 326.495 215.622 321.693 221.009 317.311L230.805 309.342L232.202 302.799C232.971 299.2 233.465 296.145 233.301 296.011C233.137 295.876 230.924 296.898 228.383 298.283C225.26 299.984 222.903 300.8 221.109 300.801C218.325 300.803 210.934 302.906 204.37 305.564C196.834 308.615 192.377 309.501 187.343 308.951C182.349 308.405 181.519 308.767 181.497 311.504C181.489 312.493 179.288 314.858 174.891 318.604C171.177 321.768 168.297 324.767 168.297 325.471C168.297 327.007 163.318 330.782 158.829 332.649C156.996 333.412 154.101 334.815 152.394 335.769C150.687 336.722 147.871 338.092 146.135 338.814C144.399 339.536 139.23 343.143 134.649 346.83C130.067 350.517 125.514 353.9 124.531 354.346C123.549 354.793 121.277 356.07 119.483 357.185C117.688 358.3 115.844 359.315 115.383 359.441C114.463 359.692 115.989 364.376 116.991 364.376C117.293 364.376 117.556 364.877 117.576 365.489C117.596 366.101 122.536 381.62 128.554 399.977C138.615 430.666 149.874 466.219 154.728 482.622C158.119 494.084 165.441 518.442 166.146 520.607C166.516 521.743 167.047 522.673 167.327 522.673C167.606 522.673 168.899 521.837 170.199 520.815ZM411.055 428.267C416.669 422.094 416.982 417.039 411.402 422.668C406.994 427.113 399.473 436.69 399.473 437.856C399.473 438.717 407.885 431.752 411.055 428.267ZM102.396 304.141C105.334 302.48 107.75 300.858 107.763 300.536C107.777 300.214 108.298 299.488 108.921 298.924C109.544 298.359 111.613 295.333 113.518 292.199C115.424 289.064 118.217 285.524 119.727 284.331L122.471 282.163L123.275 283.896C123.717 284.849 124.079 285.912 124.079 286.259C124.079 287.41 128.5 284.77 129.942 282.758C132.224 279.575 138.564 274.366 148.055 267.876C152.922 264.548 158.162 260.797 159.699 259.54C162.174 257.517 171.633 253.899 178.914 252.191C179.846 251.972 180.719 251.396 180.853 250.911C180.987 250.426 183.518 248.365 186.477 246.332C190.338 243.679 192.514 241.577 194.181 238.891C195.64 236.54 197.594 234.531 199.437 233.488C201.558 232.287 202.38 231.36 202.401 230.144C202.417 229.218 203.676 226.476 205.199 224.05L207.968 219.639L203.025 210.793C200.306 205.928 194.283 196.369 189.64 189.551C176.971 170.946 177.502 172.114 172.58 152.043C169.192 138.23 167.638 132.812 166.885 132.195C165.854 131.35 151.445 134.018 147.953 135.701C146.129 136.58 142.018 139.213 138.818 141.551C135.618 143.888 131.668 146.541 130.039 147.445C127.274 148.981 126.89 149.033 124.221 148.242C122.649 147.775 118.814 147.031 115.697 146.587C110.912 145.905 109.614 145.922 107.358 146.695C104.689 147.608 104.685 147.617 104.668 151.893C104.648 156.819 102.636 161.219 100.102 161.878C98.8256 162.21 98.4787 162.823 98.4787 164.744C98.4787 166.467 97.5468 168.472 95.3211 171.536C91.4295 176.893 88.8925 179.944 86.9473 181.604C86.1282 182.304 84.5344 185.593 83.4055 188.915C80.5039 197.453 80.1294 198.07 76.5071 200.275C70.3475 204.024 67.6281 206.415 64.482 210.848L61.3234 215.298L78.3496 260.036C87.7139 284.642 95.3757 305.311 95.3757 305.967C95.3757 307.756 96.532 307.455 102.396 304.141Z" fill="#8CCEFE"/>
<path d="M172.564 650.427C170.857 650.138 168.064 649.498 166.358 649.003L163.255 648.104L163.042 641.492L162.83 634.879L166.145 633.811C171.976 631.933 179.378 631.763 189.527 633.274C194.548 634.022 199.156 634.791 199.767 634.983C201.279 635.459 201.382 648.05 199.882 649.069C197.367 650.78 179.818 651.652 172.564 650.427ZM192.443 618.401C186.361 615.668 184.835 614.562 182.935 611.511C181.806 609.698 167.521 567.243 167.521 565.701C167.521 565.534 164.579 565.296 160.984 565.173C153.213 564.907 150.842 563.8 148.605 559.399C146.85 555.945 147.299 553.032 150.066 549.921C154.024 545.471 154.051 544.876 150.416 542.222C148.621 540.91 147.459 539.837 147.834 539.837C148.208 539.837 149.365 536.801 150.403 533.091C152.159 526.818 153.132 525.023 155.074 524.478C155.498 524.359 143.794 488.113 128.906 443.444L101.97 362.625L94.2121 362.314C86.9579 362.024 86.1527 361.852 81.8035 359.673C75.0367 356.281 70.7207 352.567 67.7786 347.602C64.3981 341.896 63.6799 338.135 65.4916 335.622C66.6673 333.99 66.7307 333.262 65.972 330.102C64.416 323.62 67.6712 310.975 70.8957 310.975C71.5597 310.975 72.103 310.689 72.103 310.339C72.103 309.987 74.1564 309.704 76.7117 309.704C79.2466 309.704 81.4946 309.473 81.7075 309.191C82.3931 308.281 50.5966 226.495 47.9002 222.232C43.7739 215.708 43.8343 215.749 40.9197 217.515L38.4372 219.019L32.8478 216.598C28.2123 214.591 26.5538 213.405 23.1297 209.652C20.8589 207.163 17.0725 203.383 14.7156 201.253C12.0385 198.833 8.46506 194.339 5.19386 189.277C0.196029 181.545 -0.941493 178.638 0.704005 177.805C1.17438 177.567 1.13989 176.868 0.610785 175.916C-0.0159433 174.789 0.0789052 172.981 0.984725 168.787C1.65224 165.697 3.10427 157.161 4.21146 149.818C5.31865 142.475 6.72128 135.551 7.32842 134.43C9.25458 130.875 12.1309 130.126 23.8934 130.118L34.2535 130.11L36.1421 127.065C38.2469 123.672 40.1381 122.799 45.3898 122.799C48.063 122.799 48.8302 122.567 48.8302 121.756C48.8302 121.181 50.2266 118.9 51.9333 116.685C53.7659 114.307 55.0363 111.881 55.0363 110.758C55.0363 109.561 55.8816 108.069 57.3207 106.725C58.5771 105.553 60.4135 103.326 61.4017 101.776C62.6752 99.7797 63.7606 98.8956 65.1294 98.7397C66.1915 98.6188 67.4996 98.2243 68.0363 97.8631C69.4988 96.8787 83.9987 91.013 84.9696 91.013C85.433 91.013 88.1418 89.0354 90.9892 86.6183L96.1663 82.2237L104.498 81.494C115.775 80.5064 119.039 79.8413 122.809 77.7631C124.574 76.7901 131.255 73.6071 137.654 70.6899C144.055 67.7727 152.178 63.9881 155.707 62.2797C163.56 58.4779 172.273 54.7837 173.397 54.7795C173.855 54.7775 175.129 51.415 176.227 47.3066C180.097 32.831 182.363 27.6829 187.777 21.0662C192.479 15.3212 199.664 9.0039 201.497 9.0039C201.962 9.0039 202.814 8.45147 203.392 7.77628C203.969 7.1011 208.09 5.07522 212.551 3.27434L220.661 1.52588e-05L230.358 0.38505C235.691 0.596818 245.487 0.73757 252.126 0.697831C266.61 0.611133 269.848 1.18388 272.799 4.3547C275.628 7.39411 281.701 15.8185 285.161 21.5042C287.688 25.6562 288 26.7778 288.694 34.2188C289.113 38.7073 289.295 44.8539 289.099 47.8779C288.795 52.5769 288.387 53.8859 286.295 56.8826C283.521 60.8562 280.782 66.9618 280.782 69.1723C280.782 70.1683 282.641 72.1692 286.449 75.2711C289.566 77.8102 293.543 81.4611 295.288 83.3842C297.033 85.3073 300.094 88.168 302.091 89.7415C304.088 91.3149 306.963 93.9785 308.48 95.6606C309.997 97.3427 313.609 100.355 316.507 102.354C321.824 106.021 331.713 116.75 337.405 125.024C338.848 127.122 341.971 131.123 344.345 133.914C346.718 136.706 349.394 140.235 350.291 141.758L351.922 144.526L362.703 147.529C368.633 149.181 375.48 151.281 377.918 152.196C383.553 154.31 392.49 160.207 395.853 164.031C399.281 167.928 405.679 180.627 405.679 183.534C405.679 184.791 406.082 186.437 406.575 187.192C407.067 187.946 407.712 190.585 408.007 193.056C408.397 196.322 409.098 198.235 410.576 200.066C414.784 205.28 421.326 218.45 423.979 227.049C425.434 231.763 426.624 236.245 426.624 237.008C426.624 237.789 427.556 238.952 428.753 239.667C430.777 240.875 430.88 241.189 430.831 246.016C430.793 249.718 430.412 251.553 429.428 252.785C427.501 255.195 421.93 257.903 415.718 259.449L410.368 260.781L410.818 263.475C411.428 267.122 409.853 277.223 407.932 281.982C407.07 284.117 405.213 287.437 403.804 289.36C402.396 291.283 398.852 296.719 395.927 301.439C385.494 318.282 381.23 322.482 371.654 325.353C362.26 328.169 354.081 331.114 345.558 334.749C333.699 339.807 329.474 342.008 330.079 342.81C330.344 343.161 331.905 344.144 333.548 344.994C335.19 345.844 338.492 348.55 340.885 351.008C343.278 353.465 345.714 355.476 346.299 355.476C346.884 355.476 348.426 356.661 349.725 358.109C351.025 359.557 353.76 361.537 355.805 362.509C357.849 363.481 362.663 366.438 366.503 369.08C370.343 371.722 373.987 373.891 374.601 373.898C375.215 373.906 377.834 375.717 380.42 377.923C384.428 381.341 386.151 382.275 392.103 384.25C398.94 386.519 406.917 387.881 413.585 387.916C419.965 387.95 424.32 390.663 429.363 397.743C430.302 399.062 435.478 399.884 443.183 399.939C448.357 399.976 453 401.308 453 402.755C453 404.063 447.311 411.574 443.222 415.665C430.225 428.669 383.102 467.985 377.887 470.177C376.468 470.773 373.342 471.523 370.939 471.844C367.075 472.359 366.383 472.281 364.936 471.167C364.036 470.474 362.337 469.907 361.161 469.907C356.687 469.907 348.617 464.673 346.459 460.371C343.273 454.019 344.109 450.846 350.784 443.969C353.548 441.122 354.895 439.138 354.953 437.829C355.001 436.766 356.485 433.245 358.25 430.005C360.016 426.765 361.461 423.87 361.461 423.572C361.461 423.273 359.975 422.892 358.159 422.724C353.728 422.314 346.196 419.216 344.285 417.016C343.433 416.036 342.217 415.235 341.582 415.235C340.948 415.235 335.648 413.567 329.805 411.529C323.962 409.492 317.96 407.43 316.467 406.949C314.973 406.467 311.184 404.63 308.046 402.866C301.702 399.3 299.735 398.286 287.243 392.139C279.34 388.25 278.009 387.812 272.116 387.158C261.647 385.995 262.144 385.901 260.805 389.31C259.699 392.123 259.724 392.5 261.203 395.349C262.071 397.02 263.555 400.676 264.502 403.474C265.448 406.271 266.525 408.716 266.894 408.908C267.533 409.239 268.029 411.771 269.884 424.168C270.996 431.602 270.932 433.096 269.104 442.311C267.285 451.482 267.229 451.329 273.526 454.353C275.623 455.36 276.903 456.431 276.903 457.177C276.903 459.044 272.447 472.886 270.206 477.977C268.248 482.427 268.228 482.631 269.445 485.56C271.192 489.76 271.013 492.374 268.691 496.615C266.713 500.228 266.698 500.373 267.575 507.184C269.289 520.491 269.773 525.861 269.387 527.281C268.229 531.538 267.41 532.725 264.855 533.853C261.78 535.21 261.814 535.072 263.312 540.155C264.772 545.111 264.818 552.736 263.401 554.968C261.706 557.637 258.997 559.305 255.099 560.079C250.383 561.016 205.917 564.43 191.376 564.972C178.25 565.462 179.209 564.725 181.393 572.635C184.17 582.694 189.217 588.006 199.658 591.859C202.188 592.793 207.774 594.987 212.071 596.735C221.488 600.566 221.45 600.479 217.916 610.388C214.627 619.612 213.93 620.134 204.538 620.412C197.607 620.617 197.236 620.555 192.443 618.401ZM216.274 550.539C223.017 549.36 224.798 548.788 226.973 547.108C229.566 545.103 230.161 543.478 228.897 541.844C228.355 541.142 227.766 541.189 225.612 542.107C223.207 543.131 212.099 546.993 205.533 549.087C204.04 549.564 201.561 549.966 200.025 549.981C196.586 550.016 192.345 551.172 192.345 552.075C192.345 553.111 206.911 552.176 216.274 550.539ZM170.199 520.815C171.5 519.794 176.521 517.216 181.358 515.087C191.994 510.404 195.706 508.352 201.335 504.039L205.64 500.74L203.083 497.593C200.721 494.685 200.511 494.007 200.329 488.692C200.091 481.764 198.318 471.296 196.717 467.364C194.521 461.974 191.797 432.369 192.644 423.099C193.288 416.051 190.177 405.997 185.531 400.11C177.933 390.482 177.2 375.885 183.674 363.097C189.909 350.781 193.615 343.678 194.486 342.377C194.979 341.641 197.647 339.83 200.415 338.352C205.121 335.839 205.398 335.561 204.697 334.049C204.101 332.765 204.23 332.257 205.322 331.578C206.078 331.108 206.894 330.714 207.136 330.703C207.377 330.692 208.394 329.467 209.394 327.981C210.395 326.495 215.622 321.693 221.009 317.311L230.805 309.342L232.202 302.799C232.971 299.2 233.465 296.145 233.301 296.011C233.137 295.876 230.924 296.898 228.383 298.283C225.26 299.984 222.903 300.8 221.109 300.801C218.325 300.803 210.934 302.906 204.37 305.564C196.834 308.615 192.377 309.501 187.343 308.951C182.349 308.405 181.519 308.767 181.497 311.504C181.489 312.493 179.288 314.858 174.891 318.604C171.177 321.768 168.297 324.767 168.297 325.471C168.297 327.007 163.318 330.782 158.829 332.649C156.996 333.412 154.101 334.815 152.394 335.769C150.687 336.722 147.871 338.092 146.135 338.814C144.399 339.536 139.23 343.143 134.649 346.83C130.067 350.517 125.514 353.9 124.531 354.346C123.549 354.793 121.277 356.07 119.483 357.185C117.688 358.3 115.844 359.315 115.383 359.441C114.463 359.692 115.989 364.376 116.991 364.376C117.293 364.376 117.556 364.877 117.576 365.489C117.596 366.101 122.536 381.62 128.554 399.977C138.615 430.666 149.874 466.219 154.728 482.622C158.119 494.084 165.441 518.442 166.146 520.607C166.516 521.743 167.047 522.673 167.327 522.673C167.606 522.673 168.899 521.837 170.199 520.815ZM411.055 428.267C416.669 422.094 416.982 417.039 411.402 422.668C406.994 427.113 399.473 436.69 399.473 437.856C399.473 438.717 407.885 431.752 411.055 428.267ZM102.396 304.141C105.334 302.48 107.75 300.858 107.763 300.536C107.777 300.214 108.298 299.488 108.921 298.924C109.544 298.359 111.613 295.333 113.518 292.199C115.424 289.064 118.217 285.524 119.727 284.331L122.471 282.163L123.275 283.896C123.717 284.849 124.079 285.912 124.079 286.259C124.079 287.41 128.5 284.77 129.942 282.758C132.224 279.575 138.564 274.366 148.055 267.876C152.922 264.548 158.162 260.797 159.699 259.54C162.174 257.517 171.633 253.899 178.914 252.191C179.846 251.972 180.719 251.396 180.853 250.911C180.987 250.426 183.518 248.365 186.477 246.332C190.338 243.679 192.514 241.577 194.181 238.891C195.64 236.54 197.594 234.531 199.437 233.488C201.558 232.287 202.38 231.36 202.401 230.144C202.417 229.218 203.676 226.476 205.199 224.05L207.968 219.639L203.025 210.793C200.306 205.928 194.283 196.369 189.64 189.551C176.971 170.946 177.502 172.114 172.58 152.043C169.192 138.23 167.638 132.812 166.885 132.195C165.854 131.35 151.445 134.018 147.953 135.701C146.129 136.58 142.018 139.213 138.818 141.551C135.618 143.888 131.668 146.541 130.039 147.445C127.274 148.981 126.89 149.033 124.221 148.242C122.649 147.775 118.814 147.031 115.697 146.587C110.912 145.905 109.614 145.922 107.358 146.695C104.689 147.608 104.685 147.617 104.668 151.893C104.648 156.819 102.636 161.219 100.102 161.878C98.8256 162.21 98.4787 162.823 98.4787 164.744C98.4787 166.467 97.5468 168.472 95.3211 171.536C91.4295 176.893 88.8925 179.944 86.9473 181.604C86.1282 182.304 84.5344 185.593 83.4055 188.915C80.5039 197.453 80.1294 198.07 76.5071 200.275C70.3475 204.024 67.6281 206.415 64.482 210.848L61.3234 215.298L78.3496 260.036C87.7139 284.642 95.3757 305.311 95.3757 305.967C95.3757 307.756 96.532 307.455 102.396 304.141Z" fill="#6BC0FE"/>
<path d="M172.564 650.427C170.857 650.138 168.064 649.498 166.358 649.003L163.255 648.104L163.042 641.492L162.83 634.879L166.145 633.811C171.976 631.933 179.378 631.763 189.527 633.274C194.548 634.022 199.156 634.791 199.767 634.983C201.279 635.459 201.382 648.05 199.882 649.069C197.367 650.78 179.818 651.652 172.564 650.427ZM192.443 618.401C186.361 615.668 184.835 614.562 182.935 611.511C181.806 609.698 167.521 567.243 167.521 565.701C167.521 565.534 164.579 565.296 160.984 565.173C153.213 564.907 150.842 563.8 148.605 559.399C146.85 555.945 147.299 553.032 150.066 549.921C154.024 545.471 154.051 544.876 150.416 542.222C148.621 540.91 147.459 539.837 147.834 539.837C148.208 539.837 149.365 536.801 150.403 533.091C152.159 526.818 153.132 525.023 155.074 524.478C155.498 524.359 143.794 488.113 128.906 443.444L101.97 362.625L94.2121 362.314C86.9579 362.024 86.1527 361.852 81.8035 359.673C75.0367 356.281 70.7207 352.567 67.7786 347.602C64.3981 341.896 63.6799 338.135 65.4916 335.622C66.6673 333.99 66.7307 333.262 65.972 330.102C64.416 323.62 67.6712 310.975 70.8957 310.975C71.5597 310.975 72.103 310.689 72.103 310.339C72.103 309.987 74.1564 309.704 76.7117 309.704C79.2466 309.704 81.4946 309.473 81.7075 309.191C82.3931 308.281 50.5966 226.495 47.9002 222.232C43.7739 215.708 43.8343 215.749 40.9197 217.515L38.4372 219.019L32.8478 216.598C28.2123 214.591 26.5538 213.405 23.1297 209.652C20.8589 207.163 17.0725 203.383 14.7156 201.253C12.0385 198.833 8.46506 194.339 5.19386 189.277C0.196029 181.545 -0.941493 178.638 0.704005 177.805C1.17438 177.567 1.13989 176.868 0.610785 175.916C-0.0159433 174.789 0.0789052 172.981 0.984725 168.787C1.65224 165.697 3.10427 157.161 4.21146 149.818C5.31865 142.475 6.73801 135.522 7.36558 134.366C9.19063 131.005 12.5645 130.161 24.2812 130.134L34.2534 130.11L36.142 127.065C38.2469 123.672 40.1381 122.799 45.3898 122.799C48.063 122.799 48.8302 122.567 48.8302 121.756C48.8302 121.181 50.2266 118.9 51.9333 116.685C53.7659 114.307 55.0363 111.881 55.0363 110.758C55.0363 109.561 55.8816 108.069 57.3207 106.725C58.5771 105.553 60.4135 103.326 61.4017 101.776C62.6752 99.7797 63.7606 98.8955 65.1294 98.7397C66.1915 98.6188 67.4996 98.2243 68.0363 97.8631C69.4988 96.8787 83.9987 91.0129 84.9696 91.0129C85.433 91.0129 88.1418 89.0354 90.9892 86.6183L96.1663 82.2237L104.498 81.494C115.775 80.5063 119.039 79.8413 122.809 77.7631C124.574 76.7901 131.255 73.6071 137.654 70.6899C144.055 67.7726 152.178 63.9881 155.707 62.2797C163.56 58.4779 172.273 54.7837 173.397 54.7795C173.855 54.7775 175.141 51.415 176.255 47.3066C180.251 32.5715 182.433 27.6077 187.8 21.0431C192.481 15.3188 199.665 9.0039 201.497 9.0039C201.962 9.0039 202.814 8.45147 203.392 7.77628C203.969 7.1011 208.09 5.07522 212.551 3.27434L220.661 1.52588e-05L230.358 0.38505C235.691 0.596818 245.487 0.73757 252.126 0.697831C266.61 0.611133 269.848 1.18388 272.799 4.3547C275.628 7.39411 281.701 15.8185 285.161 21.5042C287.688 25.6562 288 26.7778 288.694 34.2188C289.113 38.7073 289.295 44.8539 289.099 47.8779C288.795 52.5769 288.387 53.8859 286.295 56.8826C283.521 60.8562 280.782 66.9618 280.782 69.1723C280.782 70.1683 282.641 72.1692 286.449 75.2711C289.566 77.8102 293.543 81.4611 295.288 83.3842C297.033 85.3073 300.094 88.168 302.091 89.7415C304.088 91.3149 306.963 93.9785 308.48 95.6606C309.997 97.3427 313.609 100.355 316.507 102.354C321.824 106.021 331.713 116.75 337.405 125.024C338.848 127.122 341.971 131.123 344.345 133.914C346.718 136.706 349.394 140.235 350.291 141.758L351.922 144.526L362.703 147.529C368.633 149.181 375.48 151.281 377.918 152.196C383.553 154.31 392.49 160.207 395.853 164.031C399.281 167.928 405.679 180.627 405.679 183.534C405.679 184.791 406.082 186.437 406.575 187.192C407.067 187.946 407.712 190.585 408.007 193.056C408.397 196.322 409.098 198.235 410.576 200.066C414.784 205.28 421.326 218.45 423.979 227.049C425.434 231.763 426.624 236.245 426.624 237.008C426.624 237.789 427.556 238.952 428.753 239.667C430.777 240.875 430.88 241.189 430.831 246.016C430.793 249.718 430.412 251.553 429.428 252.785C427.501 255.195 421.93 257.903 415.718 259.449L410.368 260.781L410.818 263.475C411.428 267.122 409.853 277.223 407.932 281.982C407.07 284.117 405.213 287.437 403.804 289.36C402.396 291.283 398.852 296.719 395.927 301.439C385.494 318.282 381.23 322.482 371.654 325.353C362.26 328.169 354.081 331.114 345.558 334.749C333.699 339.807 329.474 342.008 330.079 342.81C330.344 343.161 331.905 344.144 333.548 344.994C335.19 345.844 338.492 348.55 340.885 351.008C343.278 353.465 345.714 355.476 346.299 355.476C346.884 355.476 348.426 356.661 349.725 358.109C351.025 359.557 353.76 361.537 355.805 362.509C357.849 363.481 362.663 366.438 366.503 369.08C370.343 371.722 373.987 373.891 374.601 373.898C375.215 373.906 377.834 375.717 380.42 377.923C384.428 381.341 386.151 382.275 392.103 384.25C398.94 386.519 406.917 387.881 413.585 387.916C419.965 387.95 424.32 390.663 429.363 397.743C430.302 399.062 435.478 399.884 443.183 399.939C448.357 399.976 453 401.308 453 402.755C453 404.063 447.311 411.574 443.222 415.665C430.225 428.669 383.102 467.985 377.887 470.177C376.468 470.773 373.342 471.523 370.939 471.844C367.075 472.359 366.383 472.281 364.936 471.167C364.036 470.474 362.337 469.907 361.161 469.907C356.687 469.907 348.617 464.673 346.459 460.371C343.273 454.019 344.109 450.846 350.784 443.969C353.548 441.122 354.895 439.138 354.953 437.829C355.001 436.766 356.485 433.245 358.25 430.005C360.016 426.765 361.461 423.87 361.461 423.572C361.461 423.273 359.975 422.892 358.159 422.724C353.728 422.314 346.196 419.216 344.285 417.016C343.433 416.036 342.217 415.235 341.582 415.235C340.948 415.235 335.648 413.567 329.805 411.529C323.962 409.492 317.96 407.43 316.467 406.949C314.973 406.467 311.184 404.63 308.046 402.866C301.702 399.3 299.735 398.286 287.243 392.139C279.34 388.25 278.009 387.812 272.116 387.158C261.647 385.995 262.144 385.901 260.805 389.31C259.699 392.123 259.724 392.5 261.203 395.349C262.071 397.02 263.555 400.676 264.502 403.474C265.448 406.271 266.525 408.716 266.894 408.908C267.533 409.239 268.029 411.771 269.884 424.168C270.996 431.602 270.932 433.096 269.104 442.311C267.285 451.482 267.229 451.329 273.526 454.353C275.623 455.36 276.903 456.431 276.903 457.177C276.903 459.044 272.447 472.886 270.206 477.977C268.248 482.427 268.228 482.631 269.445 485.56C271.192 489.76 271.013 492.374 268.691 496.615C266.713 500.228 266.698 500.373 267.575 507.184C269.289 520.491 269.773 525.861 269.387 527.281C268.229 531.538 267.41 532.725 264.855 533.853C261.78 535.21 261.814 535.072 263.312 540.155C264.772 545.111 264.818 552.736 263.401 554.968C261.706 557.637 258.997 559.305 255.099 560.079C250.383 561.016 205.917 564.43 191.376 564.972C178.25 565.462 179.209 564.725 181.393 572.635C184.17 582.694 189.217 588.006 199.658 591.859C202.188 592.793 207.774 594.987 212.071 596.735C221.488 600.566 221.45 600.479 217.916 610.388C214.627 619.612 213.93 620.134 204.538 620.412C197.607 620.617 197.236 620.555 192.443 618.401ZM216.274 550.539C223.017 549.36 224.798 548.788 226.973 547.108C229.566 545.103 230.161 543.478 228.897 541.844C228.355 541.142 227.766 541.189 225.612 542.107C223.207 543.131 212.099 546.993 205.533 549.087C204.04 549.564 201.561 549.966 200.025 549.981C196.586 550.016 192.345 551.172 192.345 552.075C192.345 553.111 206.911 552.176 216.274 550.539ZM170.199 520.815C171.5 519.794 176.521 517.216 181.358 515.087C191.994 510.404 195.706 508.352 201.335 504.039L205.64 500.74L203.083 497.593C200.721 494.685 200.511 494.007 200.329 488.692C200.091 481.764 198.318 471.296 196.717 467.364C194.521 461.974 191.797 432.369 192.644 423.099C193.288 416.051 190.177 405.997 185.531 400.11C177.933 390.482 177.2 375.885 183.674 363.097C189.909 350.781 193.615 343.678 194.486 342.377C194.979 341.641 197.647 339.83 200.415 338.352C205.121 335.839 205.398 335.561 204.697 334.049C204.101 332.765 204.23 332.257 205.322 331.578C206.078 331.108 206.894 330.714 207.136 330.703C207.377 330.692 208.394 329.467 209.394 327.981C210.395 326.495 215.622 321.693 221.009 317.311L230.805 309.342L232.202 302.799C232.971 299.2 233.465 296.145 233.301 296.011C233.137 295.876 230.924 296.898 228.383 298.283C225.26 299.984 222.903 300.8 221.109 300.801C218.325 300.803 210.934 302.906 204.37 305.564C196.834 308.615 192.377 309.501 187.343 308.951C182.349 308.405 181.519 308.767 181.497 311.504C181.489 312.493 179.288 314.858 174.891 318.604C171.177 321.768 168.297 324.767 168.297 325.471C168.297 327.007 163.318 330.782 158.829 332.649C156.996 333.412 154.101 334.815 152.394 335.769C150.687 336.722 147.871 338.092 146.135 338.814C144.399 339.536 139.23 343.143 134.649 346.83C130.067 350.517 125.514 353.9 124.531 354.346C123.549 354.793 121.277 356.07 119.483 357.185C117.688 358.3 115.844 359.315 115.383 359.441C114.463 359.692 115.989 364.376 116.991 364.376C117.293 364.376 117.556 364.877 117.576 365.489C117.596 366.101 122.536 381.62 128.554 399.977C138.615 430.666 149.874 466.219 154.728 482.622C158.119 494.084 165.441 518.442 166.146 520.607C166.516 521.743 167.047 522.673 167.327 522.673C167.606 522.673 168.899 521.837 170.199 520.815ZM411.055 428.267C416.669 422.094 416.982 417.039 411.402 422.668C406.994 427.113 399.473 436.69 399.473 437.856C399.473 438.717 407.885 431.752 411.055 428.267ZM102.396 304.141C105.334 302.48 107.75 300.858 107.763 300.536C107.777 300.214 108.298 299.488 108.921 298.924C109.544 298.359 111.613 295.333 113.518 292.199C115.424 289.064 118.217 285.524 119.727 284.331L122.471 282.163L123.275 283.896C123.717 284.849 124.079 285.912 124.079 286.259C124.079 287.41 128.5 284.77 129.942 282.758C132.224 279.575 138.564 274.366 148.055 267.876C152.922 264.548 158.162 260.797 159.699 259.54C162.174 257.517 171.633 253.899 178.914 252.191C179.846 251.972 180.719 251.396 180.853 250.911C180.987 250.426 183.518 248.365 186.477 246.332C190.338 243.679 192.514 241.577 194.181 238.891C195.64 236.54 197.594 234.531 199.437 233.488C201.558 232.287 202.38 231.36 202.401 230.144C202.417 229.218 203.676 226.476 205.199 224.05L207.968 219.639L203.025 210.793C200.306 205.928 194.283 196.369 189.64 189.551C176.971 170.946 177.502 172.114 172.58 152.043C169.192 138.23 167.638 132.812 166.885 132.195C165.854 131.35 151.445 134.018 147.953 135.701C146.129 136.58 142.018 139.213 138.818 141.551C135.618 143.888 131.668 146.541 130.039 147.445C127.274 148.981 126.89 149.033 124.221 148.242C122.649 147.775 118.814 147.031 115.697 146.587C110.912 145.905 109.614 145.922 107.358 146.695C104.689 147.608 104.685 147.617 104.668 151.893C104.648 156.819 102.636 161.219 100.102 161.878C98.8256 162.21 98.4787 162.823 98.4787 164.744C98.4787 166.467 97.5468 168.472 95.3211 171.536C91.4295 176.893 88.8925 179.944 86.9473 181.604C86.1282 182.304 84.5344 185.593 83.4055 188.915C80.5039 197.453 80.1294 198.07 76.5071 200.275C70.3475 204.024 67.6281 206.415 64.482 210.848L61.3234 215.298L78.3496 260.036C87.7139 284.642 95.3757 305.311 95.3757 305.967C95.3757 307.756 96.532 307.455 102.396 304.141Z" fill="#4EB5FE"/>
<path d="M172.564 650.427C170.857 650.138 168.064 649.498 166.358 649.003L163.255 648.104L163.042 641.492L162.83 634.879L166.145 633.811C171.976 631.933 179.378 631.763 189.527 633.274C194.548 634.022 199.156 634.791 199.767 634.983C201.279 635.459 201.382 648.05 199.882 649.069C197.367 650.78 179.818 651.652 172.564 650.427ZM192.443 618.401C186.361 615.668 184.835 614.562 182.935 611.511C181.806 609.698 167.521 567.243 167.521 565.701C167.521 565.534 164.579 565.296 160.984 565.173C153.213 564.907 150.842 563.8 148.605 559.399C146.85 555.945 147.299 553.032 150.066 549.921C154.024 545.471 154.051 544.876 150.416 542.222C148.621 540.91 147.459 539.837 147.834 539.837C148.208 539.837 149.365 536.801 150.403 533.091C152.159 526.818 153.132 525.023 155.074 524.478C155.498 524.359 143.794 488.113 128.906 443.444L101.97 362.625L94.2121 362.314C86.9579 362.024 86.1527 361.852 81.8035 359.673C75.0367 356.281 70.7207 352.567 67.7786 347.602C64.3981 341.896 63.6799 338.135 65.4916 335.622C66.6673 333.99 66.7307 333.262 65.972 330.102C64.416 323.62 67.6712 310.975 70.8957 310.975C71.5597 310.975 72.103 310.689 72.103 310.339C72.103 309.987 74.1564 309.704 76.7117 309.704C79.2466 309.704 81.4946 309.473 81.7075 309.191C82.3931 308.281 50.5966 226.495 47.9002 222.232C43.7739 215.708 43.8343 215.749 40.9197 217.515L38.4372 219.019L32.8478 216.598C28.2123 214.591 26.5538 213.405 23.1297 209.652C20.8589 207.163 17.0725 203.383 14.7156 201.253C12.0385 198.833 8.46506 194.339 5.19386 189.277C0.196029 181.545 -0.941493 178.638 0.704005 177.805C1.17438 177.567 1.13989 176.868 0.610785 175.916C-0.0159433 174.789 0.0789052 172.981 0.984725 168.787C1.65224 165.697 3.12605 157.161 4.25985 149.818C5.39366 142.475 6.86961 135.503 7.53975 134.323C9.43999 130.979 12.5903 130.193 24.2814 130.149L34.2538 130.11L36.1422 127.065C38.2469 123.672 40.138 122.799 45.3898 122.799C48.063 122.799 48.8302 122.567 48.8302 121.756C48.8302 121.181 50.2266 118.9 51.9333 116.685C53.7659 114.307 55.0363 111.881 55.0363 110.758C55.0363 109.561 55.8816 108.069 57.3207 106.725C58.5771 105.553 60.4135 103.326 61.4017 101.776C62.6752 99.7797 63.7606 98.8956 65.1294 98.7397C66.1915 98.6188 67.4996 98.2243 68.0363 97.8631C69.4988 96.8787 83.9987 91.013 84.9696 91.013C85.433 91.013 88.1418 89.0354 90.9892 86.6183L96.1663 82.2237L104.498 81.494C115.775 80.5064 119.039 79.8413 122.809 77.7631C124.574 76.7901 131.255 73.6071 137.654 70.6899C144.055 67.7727 152.178 63.9881 155.707 62.2797C163.589 58.4636 172.274 54.7837 173.408 54.7795C173.872 54.7775 175.055 51.558 176.036 47.6245C177.017 43.6909 178.122 39.9888 178.491 39.3977C178.861 38.8065 179.991 35.8027 181.003 32.7225C182.471 28.2541 183.843 25.9015 187.794 21.0828C192.511 15.3292 199.687 9.0039 201.497 9.0039C201.962 9.0039 202.814 8.45147 203.392 7.77628C203.969 7.1011 208.09 5.07522 212.551 3.27434L220.661 1.52588e-05L230.358 0.38505C235.691 0.596818 245.487 0.73757 252.126 0.697831C266.61 0.611133 269.848 1.18388 272.799 4.3547C275.628 7.39411 281.701 15.8185 285.161 21.5042C287.688 25.6562 288 26.7778 288.694 34.2188C289.113 38.7073 289.295 44.8539 289.099 47.8779C288.795 52.5769 288.387 53.8859 286.295 56.8826C283.521 60.8562 280.782 66.9618 280.782 69.1723C280.782 70.1683 282.641 72.1692 286.449 75.2711C289.566 77.8102 293.543 81.4611 295.288 83.3842C297.033 85.3073 300.094 88.168 302.091 89.7415C304.088 91.3149 306.963 93.9785 308.48 95.6606C309.997 97.3427 313.609 100.355 316.507 102.354C321.824 106.021 331.713 116.75 337.405 125.024C338.848 127.122 341.971 131.123 344.345 133.914C346.718 136.706 349.394 140.235 350.291 141.758L351.922 144.526L362.703 147.529C368.633 149.181 375.48 151.281 377.918 152.196C383.553 154.31 392.49 160.207 395.853 164.031C399.281 167.928 405.679 180.627 405.679 183.534C405.679 184.791 406.082 186.437 406.575 187.192C407.067 187.946 407.712 190.585 408.007 193.056C408.397 196.322 409.098 198.235 410.576 200.066C414.784 205.28 421.326 218.45 423.979 227.049C425.434 231.763 426.624 236.245 426.624 237.008C426.624 237.789 427.556 238.952 428.753 239.667C430.777 240.875 430.88 241.189 430.831 246.016C430.793 249.718 430.412 251.553 429.428 252.785C427.501 255.195 421.93 257.903 415.718 259.449L410.368 260.781L410.818 263.475C411.428 267.122 409.853 277.223 407.932 281.982C407.07 284.117 405.213 287.437 403.804 289.36C402.396 291.283 398.852 296.719 395.927 301.439C385.494 318.282 381.23 322.482 371.654 325.353C362.26 328.169 354.081 331.114 345.558 334.749C333.699 339.807 329.474 342.008 330.079 342.81C330.344 343.161 331.905 344.144 333.548 344.994C335.19 345.844 338.492 348.55 340.885 351.008C343.278 353.465 345.714 355.476 346.299 355.476C346.884 355.476 348.426 356.661 349.725 358.109C351.025 359.557 353.76 361.537 355.805 362.509C357.849 363.481 362.663 366.438 366.503 369.08C370.343 371.722 373.987 373.891 374.601 373.898C375.215 373.906 377.834 375.717 380.42 377.923C384.428 381.341 386.151 382.275 392.103 384.25C398.94 386.519 406.917 387.881 413.585 387.916C419.965 387.95 424.32 390.663 429.363 397.743C430.302 399.062 435.478 399.884 443.183 399.939C448.357 399.976 453 401.308 453 402.755C453 404.063 447.311 411.574 443.222 415.665C430.225 428.669 383.102 467.985 377.887 470.177C376.468 470.773 373.342 471.523 370.939 471.844C367.075 472.359 366.383 472.281 364.936 471.167C364.036 470.474 362.337 469.907 361.161 469.907C356.687 469.907 348.617 464.673 346.459 460.371C343.273 454.019 344.109 450.846 350.784 443.969C353.548 441.122 354.895 439.138 354.953 437.829C355.001 436.766 356.485 433.245 358.25 430.005C360.016 426.765 361.461 423.87 361.461 423.572C361.461 423.273 359.975 422.892 358.159 422.724C353.728 422.314 346.196 419.216 344.285 417.016C343.433 416.036 342.217 415.235 341.582 415.235C340.948 415.235 335.648 413.567 329.805 411.529C323.962 409.492 317.96 407.43 316.467 406.949C314.973 406.467 311.184 404.63 308.046 402.866C301.702 399.3 299.735 398.286 287.243 392.139C279.34 388.25 278.009 387.812 272.116 387.158C261.647 385.995 262.144 385.901 260.805 389.31C259.699 392.123 259.724 392.5 261.203 395.349C262.071 397.02 263.555 400.676 264.502 403.474C265.448 406.271 266.525 408.716 266.894 408.908C267.533 409.239 268.029 411.771 269.884 424.168C270.996 431.602 270.932 433.096 269.104 442.311C267.285 451.482 267.229 451.329 273.526 454.353C275.623 455.36 276.903 456.431 276.903 457.177C276.903 459.044 272.447 472.886 270.206 477.977C268.248 482.427 268.228 482.631 269.445 485.56C271.192 489.76 271.013 492.374 268.691 496.615C266.713 500.228 266.698 500.373 267.575 507.184C269.289 520.491 269.773 525.861 269.387 527.281C268.229 531.538 267.41 532.725 264.855 533.853C261.78 535.21 261.814 535.072 263.312 540.155C264.772 545.111 264.818 552.736 263.401 554.968C261.706 557.637 258.997 559.305 255.099 560.079C250.383 561.016 205.917 564.43 191.376 564.972C178.25 565.462 179.209 564.725 181.393 572.635C184.17 582.694 189.217 588.006 199.658 591.859C202.188 592.793 207.774 594.987 212.071 596.735C221.488 600.566 221.45 600.479 217.916 610.388C214.627 619.612 213.93 620.134 204.538 620.412C197.607 620.617 197.236 620.555 192.443 618.401ZM216.274 550.539C223.017 549.36 224.798 548.788 226.973 547.108C229.566 545.103 230.161 543.478 228.897 541.844C228.355 541.142 227.766 541.189 225.612 542.107C223.207 543.131 212.099 546.993 205.533 549.087C204.04 549.564 201.561 549.966 200.025 549.981C196.586 550.016 192.345 551.172 192.345 552.075C192.345 553.111 206.911 552.176 216.274 550.539ZM170.199 520.815C171.5 519.794 176.521 517.216 181.358 515.087C191.994 510.404 195.706 508.352 201.335 504.039L205.64 500.74L203.083 497.593C200.721 494.685 200.511 494.007 200.329 488.692C200.091 481.764 198.318 471.296 196.717 467.364C194.521 461.974 191.797 432.369 192.644 423.099C193.288 416.051 190.177 405.997 185.531 400.11C177.933 390.482 177.2 375.885 183.674 363.097C189.909 350.781 193.615 343.678 194.486 342.377C194.979 341.641 197.647 339.83 200.415 338.352C205.121 335.839 205.398 335.561 204.697 334.049C204.101 332.765 204.23 332.257 205.322 331.578C206.078 331.108 206.894 330.714 207.136 330.703C207.377 330.692 208.394 329.467 209.394 327.981C210.395 326.495 215.622 321.693 221.009 317.311L230.805 309.342L232.202 302.799C232.971 299.2 233.465 296.145 233.301 296.011C233.137 295.876 230.924 296.898 228.383 298.283C225.26 299.984 222.903 300.8 221.109 300.801C218.325 300.803 210.934 302.906 204.37 305.564C196.834 308.615 192.377 309.501 187.343 308.951C182.349 308.405 181.519 308.767 181.497 311.504C181.489 312.493 179.288 314.858 174.891 318.604C171.177 321.768 168.297 324.767 168.297 325.471C168.297 327.007 163.318 330.782 158.829 332.649C156.996 333.412 154.101 334.815 152.394 335.769C150.687 336.722 147.871 338.092 146.135 338.814C144.399 339.536 139.23 343.143 134.649 346.83C130.067 350.517 125.514 353.9 124.531 354.346C123.549 354.793 121.277 356.07 119.483 357.185C117.688 358.3 115.844 359.315 115.383 359.441C114.463 359.692 115.989 364.376 116.991 364.376C117.293 364.376 117.556 364.877 117.576 365.489C117.596 366.101 122.536 381.62 128.554 399.977C138.615 430.666 149.874 466.219 154.728 482.622C158.119 494.084 165.441 518.442 166.146 520.607C166.516 521.743 167.047 522.673 167.327 522.673C167.606 522.673 168.899 521.837 170.199 520.815ZM411.055 428.267C416.669 422.094 416.982 417.039 411.402 422.668C406.994 427.113 399.473 436.69 399.473 437.856C399.473 438.717 407.885 431.752 411.055 428.267ZM102.396 304.141C105.334 302.48 107.75 300.858 107.763 300.536C107.777 300.214 108.298 299.488 108.921 298.924C109.544 298.359 111.613 295.333 113.518 292.199C115.424 289.064 118.217 285.524 119.727 284.331L122.471 282.163L123.275 283.896C123.717 284.849 124.079 285.912 124.079 286.259C124.079 287.41 128.5 284.77 129.942 282.758C132.224 279.575 138.564 274.366 148.055 267.876C152.922 264.548 158.162 260.797 159.699 259.54C162.174 257.517 171.633 253.899 178.914 252.191C179.846 251.972 180.719 251.396 180.853 250.911C180.987 250.426 183.518 248.365 186.477 246.332C190.338 243.679 192.514 241.577 194.181 238.891C195.64 236.54 197.594 234.531 199.437 233.488C201.558 232.287 202.38 231.36 202.401 230.144C202.417 229.218 203.676 226.476 205.199 224.05L207.968 219.639L203.025 210.793C200.306 205.928 194.283 196.369 189.64 189.551C176.971 170.946 177.502 172.114 172.58 152.043C169.192 138.23 167.638 132.812 166.885 132.195C165.854 131.35 151.445 134.018 147.953 135.701C146.129 136.58 142.018 139.213 138.818 141.551C135.618 143.888 131.668 146.541 130.039 147.445C127.274 148.981 126.89 149.033 124.221 148.242C122.649 147.775 118.814 147.031 115.697 146.587C110.912 145.905 109.614 145.922 107.358 146.695C104.689 147.608 104.685 147.617 104.668 151.893C104.648 156.819 102.636 161.219 100.102 161.878C98.8256 162.21 98.4787 162.823 98.4787 164.744C98.4787 166.467 97.5468 168.472 95.3211 171.536C91.4295 176.893 88.8925 179.944 86.9473 181.604C86.1282 182.304 84.5344 185.593 83.4055 188.915C80.5039 197.453 80.1294 198.07 76.5071 200.275C70.3475 204.024 67.6281 206.415 64.482 210.848L61.3234 215.298L78.3496 260.036C87.7139 284.642 95.3757 305.311 95.3757 305.967C95.3757 307.756 96.532 307.455 102.396 304.141Z" fill="#2EA7FE"/>
<path d="M172.564 650.427C134.815 632.589 213.469 620.792 199.245 646.685C192.439 652.181 181.159 654.147 172.564 650.427ZM192.443 618.401C168.752 603.03 179.821 565.684 149.844 557.998C153.075 530.887 154.262 503.886 140.451 478.364C127.765 439.753 114.789 401.206 101.97 362.625C69.283 367.114 52.9076 329.061 72.4477 311.44C90.8323 292.371 57.2848 263.363 55.5566 239.944C51.7941 211.94 9.57268 214.759 3.18602 184.594C0.0501074 165.671 -4.15806 125.015 33.3165 129.224C60.0933 108.178 82.4119 81.455 123.226 76.4038C164.56 69.5257 178.979 40.2202 194.834 13.8869C214.995 -3.76008 256.968 -8.1022 277.667 10.6487C306.328 37.0532 262.076 75.8833 308.51 95.5607C333.357 108.798 336.721 138.071 363.418 148.777C407.513 152.307 403.917 195.297 421.365 219.461C435.072 236.705 427.707 257.978 410.235 266.77C407.2 294.671 387.586 324.316 352.382 331.577C307.866 344.428 365.927 368.437 383.544 378.722C402.397 391.311 446.043 392 450.007 409.805C424.862 430.472 403.012 456.046 372.841 471.331C339.922 474.41 343.586 441.025 358.019 427.443C340.799 408.271 304.312 406.775 282.691 389.774C239.536 378.393 278.682 421.41 270.091 438.677C277.71 466.528 265.353 493.173 267.981 522.04C269.692 546.774 255.615 570.053 220.088 563.264C192.687 556.282 163.791 576.653 198.731 590.476C226.035 598.032 225.395 628.588 192.443 618.401ZM216.274 550.539C256.694 533.142 167.747 555.743 208.585 551.615C211.162 551.317 213.724 550.966 216.274 550.539ZM170.199 520.815C199.543 513.235 212.347 492.045 196.826 469.649C193.464 439.999 191.936 411.097 180.163 383.233C175.857 349.143 215.825 329.333 232.226 302.889C221.858 292.26 191.634 312.288 179.249 313.858C167.294 338.595 115.749 341.8 118.563 370.781C136.728 420.912 150.798 472.082 167.327 522.673L168.766 521.742L170.199 520.815ZM411.055 428.267C423.186 407.446 387.885 449.809 410.258 429.05L411.055 428.267ZM102.396 304.141C122.791 281.126 149.769 266.033 179.589 250.429C216.685 234.988 205.79 203.618 183.949 182.357C172.887 163.614 174.063 115.008 138.242 141.687C120.153 151.954 97.9226 143.607 97.6346 167.108C91.7347 191.662 48.542 207.379 68.4025 233.899C80.6521 254.883 83.0902 295.078 101.395 304.636L102.396 304.141Z" fill="#52D3D8"/>
</g>
<defs>
<clipPath id="clip0_9_50">
<rect width="453" height="651" fill="white"/>
</clipPath>
</defs>
</svg>
